<svg width="25" height="25" viewBox="0 0 25 25" fill="none" xmlns="http://www.w3.org/2000/svg">
<path d="M18.8477 11.0442C19.387 11.0442 19.8242 10.6142 19.8242 10.0838C19.8242 9.55344 19.387 9.12347 18.8477 9.12347C18.3083 9.12347 17.8711 9.55344 17.8711 10.0838C17.8711 10.6142 18.3083 11.0442 18.8477 11.0442Z" fill="#7E7878"/>
<path d="M21.0938 1.92073H19.8242V0.960363C19.8242 0.429955 19.387 0 18.8477 0C18.3083 0 17.8711 0.429955 17.8711 0.960363V1.92073H13.4277V0.960363C13.4277 0.429955 12.9905 0 12.4512 0C11.9118 0 11.4746 0.429955 11.4746 0.960363V1.92073H7.08008V0.960363C7.08008 0.429955 6.64287 0 6.10352 0C5.56416 0 5.12695 0.429955 5.12695 0.960363V1.92073H3.90625C1.75234 1.92073 0 3.644 0 5.76218V20.7438C0 22.862 1.75234 24.5853 3.90625 24.5853H11.377C11.9163 24.5853 12.3535 24.1553 12.3535 23.6249C12.3535 23.0945 11.9163 22.6646 11.377 22.6646H3.90625C2.8293 22.6646 1.95312 21.8029 1.95312 20.7438V5.76218C1.95312 4.70309 2.8293 3.84145 3.90625 3.84145H5.12695V4.80182C5.12695 5.33222 5.56416 5.76218 6.10352 5.76218C6.64287 5.76218 7.08008 5.33222 7.08008 4.80182V3.84145H11.4746V4.80182C11.4746 5.33222 11.9118 5.76218 12.4512 5.76218C12.9905 5.76218 13.4277 5.33222 13.4277 4.80182V3.84145H17.8711V4.80182C17.8711 5.33222 18.3083 5.76218 18.8477 5.76218C19.387 5.76218 19.8242 5.33222 19.8242 4.80182V3.84145H21.0938C22.1707 3.84145 23.0469 4.70309 23.0469 5.76218V11.2362C23.0469 11.7667 23.4841 12.1966 24.0234 12.1966C24.5628 12.1966 25 11.7667 25 11.2362V5.76218C25 3.644 23.2477 1.92073 21.0938 1.92073Z" fill="#7E7878"/>
<path d="M19.0918 12.9649C15.834 12.9649 13.1836 15.5713 13.1836 18.7751C13.1836 21.9789 15.834 24.5853 19.0918 24.5853C22.3496 24.5853 25 21.9789 25 18.7751C25 15.5713 22.3496 12.9649 19.0918 12.9649ZM19.0918 22.6646C16.911 22.6646 15.1367 20.9198 15.1367 18.7751C15.1367 16.6304 16.911 14.8856 19.0918 14.8856C21.2726 14.8856 23.0469 16.6304 23.0469 18.7751C23.0469 20.9198 21.2726 22.6646 19.0918 22.6646Z" fill="#7E7878"/>
<path d="M20.5078 17.8148H20.0684V16.8064C20.0684 16.276 19.6312 15.846 19.0918 15.846C18.5524 15.846 18.1152 16.276 18.1152 16.8064V18.7751C18.1152 19.3055 18.5524 19.7355 19.0918 19.7355H20.5078C21.0472 19.7355 21.4844 19.3055 21.4844 18.7751C21.4844 18.2447 21.0472 17.8148 20.5078 17.8148Z" fill="#7E7878"/>
<path d="M14.5996 11.0442C15.1389 11.0442 15.5762 10.6142 15.5762 10.0838C15.5762 9.55344 15.1389 9.12347 14.5996 9.12347C14.0603 9.12347 13.623 9.55344 13.623 10.0838C13.623 10.6142 14.0603 11.0442 14.5996 11.0442Z" fill="#7E7878"/>
<path d="M10.3516 15.2218C10.8909 15.2218 11.3281 14.7918 11.3281 14.2614C11.3281 13.731 10.8909 13.301 10.3516 13.301C9.81222 13.301 9.375 13.731 9.375 14.2614C9.375 14.7918 9.81222 15.2218 10.3516 15.2218Z" fill="#7E7878"/>
<path d="M6.10352 11.0442C6.64286 11.0442 7.08008 10.6142 7.08008 10.0838C7.08008 9.55344 6.64286 9.12347 6.10352 9.12347C5.56418 9.12347 5.12695 9.55344 5.12695 10.0838C5.12695 10.6142 5.56418 11.0442 6.10352 11.0442Z" fill="#7E7878"/>
<path d="M6.10352 15.2218C6.64286 15.2218 7.08008 14.7918 7.08008 14.2614C7.08008 13.731 6.64286 13.301 6.10352 13.301C5.56418 13.301 5.12695 13.731 5.12695 14.2614C5.12695 14.7918 5.56418 15.2218 6.10352 15.2218Z" fill="#7E7878"/>
<path d="M6.10352 19.3994C6.64286 19.3994 7.08008 18.9694 7.08008 18.439C7.08008 17.9086 6.64286 17.4786 6.10352 17.4786C5.56418 17.4786 5.12695 17.9086 5.12695 18.439C5.12695 18.9694 5.56418 19.3994 6.10352 19.3994Z" fill="#7E7878"/>
<path d="M10.3516 19.3994C10.8909 19.3994 11.3281 18.9694 11.3281 18.439C11.3281 17.9086 10.8909 17.4786 10.3516 17.4786C9.81222 17.4786 9.375 17.9086 9.375 18.439C9.375 18.9694 9.81222 19.3994 10.3516 19.3994Z" fill="#7E7878"/>
<path d="M10.3516 11.0442C10.8909 11.0442 11.3281 10.6142 11.3281 10.0838C11.3281 9.55344 10.8909 9.12347 10.3516 9.12347C9.81222 9.12347 9.375 9.55344 9.375 10.0838C9.375 10.6142 9.81222 11.0442 10.3516 11.0442Z" fill="#7E7878"/>
</svg>
