<svg width="29" height="29" viewBox="0 0 29 29" fill="none" xmlns="http://www.w3.org/2000/svg">
<path d="M25.375 21.3839C25.375 21.7754 25.2879 22.1777 25.1027 22.5692C24.9176 22.9607 24.678 23.3305 24.3621 23.6785C23.8284 24.2658 23.2403 24.6899 22.5759 24.9618C21.9224 25.2336 21.2145 25.375 20.4521 25.375C19.3412 25.375 18.154 25.114 16.9015 24.5811C15.649 24.0483 14.3965 23.3305 13.1549 22.4279C11.9024 21.5144 10.7153 20.503 9.58256 19.3829C8.46075 18.2519 7.44786 17.0665 6.54388 15.8268C5.65079 14.587 4.93196 13.3473 4.40918 12.1184C3.88639 10.8786 3.625 9.69325 3.625 8.56225C3.625 7.82275 3.7557 7.11588 4.01709 6.46338C4.27848 5.8 4.69235 5.191 5.26959 4.64725C5.96664 3.96213 6.72903 3.625 7.53499 3.625C7.83995 3.625 8.14491 3.69025 8.41719 3.82075C8.70036 3.95125 8.95086 4.147 9.14691 4.42975L11.6737 7.98588C11.8697 8.25775 12.0113 8.50787 12.1094 8.74712C12.2074 8.9755 12.2618 9.20388 12.2618 9.4105C12.2618 9.6715 12.1856 9.9325 12.0331 10.1826C11.8915 10.4327 11.6846 10.6937 11.4232 10.9547L10.5955 11.8139C10.4757 11.9335 10.4212 12.0749 10.4212 12.2489C10.4212 12.3359 10.4321 12.412 10.4539 12.499C10.4865 12.586 10.5192 12.6512 10.541 12.7165C10.737 13.0754 11.0747 13.543 11.5539 14.1085C12.044 14.674 12.5668 15.2504 13.1331 15.8268C13.7213 16.4031 14.2876 16.936 14.8649 17.4254C15.4312 17.9039 15.8995 18.2301 16.2698 18.4259C16.3243 18.4476 16.3896 18.4802 16.4659 18.5129C16.553 18.5455 16.6401 18.5564 16.7382 18.5564C16.9233 18.5564 17.0649 18.4911 17.1847 18.3715L18.0125 17.5559C18.2847 17.284 18.5461 17.0774 18.7966 16.9469C19.0471 16.7946 19.2976 16.7185 19.5699 16.7185C19.7769 16.7185 19.9947 16.762 20.2343 16.8599C20.4739 16.9577 20.7244 17.0991 20.9967 17.284L24.6017 19.8396C24.8849 20.0354 25.0809 20.2637 25.2007 20.5356C25.3097 20.8075 25.375 21.0794 25.375 21.3839Z" stroke="#1896CF" stroke-width="3" stroke-miterlimit="10"/>
</svg>
