<svg width="15" height="15" viewBox="0 0 15 15" fill="none" xmlns="http://www.w3.org/2000/svg">
<path d="M14 11.0448V12.8712C14 13.3748 13.5835 13.7843 13.0714 13.7843H1.92857C1.41646 13.7843 1 13.3748 1 12.8712V11.0448C1 10.7928 1.208 10.5883 1.46429 10.5883C1.72057 10.5883 1.92857 10.7928 1.92857 11.0448V12.8712H13.0714V11.0448C13.0714 10.7928 13.2794 10.5883 13.5357 10.5883C13.792 10.5883 14 10.7928 14 11.0448Z" fill="#1896CF" stroke="#1896CF" stroke-width="0.5"/>
<path d="M3.9218 7.71498C3.74026 7.53646 3.74026 7.2479 3.9218 7.06937C4.10333 6.89085 4.39676 6.89085 4.5783 7.06937L7.03576 9.48607V1.45658C7.03576 1.20455 7.24376 1 7.50005 1C7.75633 1 7.96433 1.20455 7.96433 1.45658V9.48607L10.4218 7.06937C10.6033 6.89085 10.8968 6.89085 11.0783 7.06937C11.2598 7.2479 11.2598 7.53646 11.0783 7.71498L7.8283 10.9111C7.64444 11.0923 7.34962 11.0864 7.17133 10.9111L3.9218 7.71498Z" fill="#1896CF" stroke="#1896CF" stroke-width="0.5"/>
</svg>
