<svg width="29" height="29" viewBox="0 0 29 29" fill="none" xmlns="http://www.w3.org/2000/svg">
<path d="M9.66663 3.62496H10.875C8.51871 10.6816 8.51871 18.3183 10.875 25.375H9.66663M18.125 3.62496C20.4812 10.6816 20.4812 18.3183 18.125 25.375M3.62496 19.3333V18.125C10.6816 20.4812 18.3183 20.4812 25.375 18.125V19.3333M3.62496 10.875C10.6816 8.51871 18.3183 8.51871 25.375 10.875M26.5833 14.5C26.5833 21.1734 21.1734 26.5833 14.5 26.5833C7.82652 26.5833 2.41663 21.1734 2.41663 14.5C2.41663 7.82652 7.82652 2.41663 14.5 2.41663C21.1734 2.41663 26.5833 7.82652 26.5833 14.5Z" stroke="#F9C729" stroke-width="3" stroke-linecap="round" stroke-linejoin="round"/>
</svg>
