<svg width="52" height="42" viewBox="0 0 52 42" fill="none" xmlns="http://www.w3.org/2000/svg">
<path d="M26 22.3547C20.486 22.3547 16 27.7162 16 34.3063V41.6611H36V34.3063C36 27.7162 31.514 22.3547 26 22.3547Z" fill="#1896CF"/>
<path d="M32.8555 13.9321C32.8555 10.0907 29.7804 6.96606 26 6.96606C22.2196 6.96606 19.1445 10.0907 19.1445 13.9321C19.1445 17.7734 22.2196 20.8981 26 20.8981C29.7804 20.8981 32.8555 17.7734 32.8555 13.9321Z" fill="#1896CF"/>
<path d="M16.8594 6.966C16.8594 3.12462 13.7843 0 10.0039 0C6.22348 0 3.14844 3.12462 3.14844 6.966C3.14844 10.8074 6.22348 13.932 10.0039 13.932C13.7843 13.932 16.8594 10.8074 16.8594 6.966Z" fill="#0FDBAD"/>
<path d="M42.013 14.2258C37.9955 14.2258 34.5446 17.1635 33 21.3541C36.5807 24.1494 38.9713 29.0053 38.9713 34.5483H52V26.2346C52 19.6129 47.464 14.2258 42.013 14.2258Z" fill="#F9C729"/>
<path d="M48.8516 6.966C48.8516 3.12462 45.7765 0 41.9961 0C38.2157 0 35.1406 3.12462 35.1406 6.966C35.1406 10.8074 38.2157 13.932 41.9961 13.932C45.7765 13.932 48.8516 10.8074 48.8516 6.966Z" fill="#F9C729"/>
<path d="M19 21.3541C17.4554 17.1635 14.0045 14.2258 9.98695 14.2258C4.53603 14.2258 0 19.6129 0 26.2346V34.5483H13.0287C13.0287 29.0053 15.4193 24.1494 19 21.3541Z" fill="#0FDBAD"/>
</svg>
