<svg width="49" height="50" viewBox="0 0 49 50" fill="none" xmlns="http://www.w3.org/2000/svg">
<path d="M48.9999 19.1575L37.4197 10.4233V14.838C34.3505 15.0808 31.3956 16.0981 28.8064 17.7915L27.5144 22.0928L28.8064 33.7445C28.8064 28.6094 32.5564 24.3475 37.4197 23.6375V27.8916L48.9999 19.1575Z" fill="#F9C729"/>
<path d="M11.5798 26.5078V22.093L0 30.8272L11.5798 39.5614V35.3072C16.4432 36.0172 20.1931 40.2791 20.1931 45.4142L21.6766 35.4464L20.1931 29.4613C17.604 27.7677 14.649 26.7504 11.5798 26.5078Z" fill="#0FDBAD"/>
<path d="M33.229 11.0861H28.8065V49.7902H20.1932V11.0861H15.7708L24.4999 0L33.229 11.0861Z" fill="#1896CF"/>
<path d="M33.229 11.0861H28.8065V49.7902H24.4999V0L33.229 11.0861Z" fill="#1896CF"/>
</svg>
