<svg width="41" height="49" viewBox="0 0 41 49" fill="none" xmlns="http://www.w3.org/2000/svg">
<path d="M9.50722 31.9788H1.39887C0.626213 31.9788 0 32.6151 0 33.4002V47.0966C0 47.8817 0.626213 48.518 1.39887 48.518H9.50758C10.2799 48.518 10.9065 47.8817 10.9065 47.0966V33.4002C10.9061 32.6151 10.2799 31.9788 9.50722 31.9788Z" fill="#1896CF"/>
<path d="M24.5546 24.323H16.4459C15.6732 24.323 15.047 24.9593 15.047 25.7444V47.0965C15.047 47.8816 15.6732 48.5179 16.4459 48.5179H24.5546C25.3269 48.5179 25.9534 47.8816 25.9534 47.0965V25.7444C25.9534 24.9593 25.3269 24.323 24.5546 24.323Z" fill="#F9C729"/>
<path d="M39.6011 12.7607H31.4927C30.7201 12.7607 30.0939 13.3971 30.0939 14.1822V47.0966C30.0939 47.8818 30.7201 48.5181 31.4927 48.5181H39.6011C40.3737 48.5181 41 47.8818 41 47.0966V14.1822C41 13.3971 40.3737 12.7607 39.6011 12.7607Z" fill="#1896CF"/>
<path d="M40.7337 1.78306C40.5345 1.41734 40.1869 1.15933 39.7833 1.07753L34.5969 0.0277469C33.8396 -0.125871 33.1026 0.373849 32.9518 1.14379C32.8006 1.91373 33.2924 2.66219 34.0501 2.81581L35.4956 3.10824L23.1863 10.088L17.3908 7.03492C16.9846 6.82097 16.5009 6.82245 16.0961 7.039L0.838991 15.1907C0.15522 15.5564 -0.107432 16.4156 0.252121 17.1104C0.502388 17.5942 0.98835 17.8707 1.49143 17.8707C1.71073 17.8707 1.93368 17.8181 2.14132 17.7071L16.7519 9.90035L22.567 12.9638C22.9845 13.1837 23.4821 13.1759 23.8927 12.9435L36.8482 5.59684L36.3499 6.93313C36.0759 7.66716 36.4395 8.48781 37.1619 8.76617C37.3251 8.8291 37.4927 8.85872 37.6577 8.85872C38.222 8.85872 38.7538 8.50891 38.9659 7.94071L40.8183 2.97572C40.964 2.58483 40.933 2.14841 40.7337 1.78306Z" fill="#0FDBAD"/>
<path d="M24.5545 48.5179C25.3268 48.5179 25.9534 47.8816 25.9534 47.0965V25.7444C25.9534 24.9593 25.3268 24.323 24.5545 24.323H20.5V48.5179H24.5545Z" fill="#F9C729"/>
<path d="M40.7337 1.78306C40.5344 1.41734 40.1869 1.15933 39.7833 1.07753L34.5969 0.0277469C33.8395 -0.125871 33.1026 0.373849 32.9518 1.14379C32.8006 1.91373 33.2924 2.66219 34.0501 2.81581L35.4956 3.10824L23.1863 10.088L20.5 8.67289V11.8752L22.567 12.9638C22.9841 13.1837 23.4821 13.1759 23.8923 12.9435L36.8482 5.59684L36.3499 6.93313C36.0759 7.66716 36.4395 8.48781 37.1619 8.76617C37.3251 8.8291 37.4926 8.85872 37.6573 8.85872C38.2219 8.85872 38.7538 8.50891 38.9658 7.94071L40.8179 2.97572C40.9639 2.58483 40.933 2.14841 40.7337 1.78306Z" fill="#0FDBAD"/>
</svg>
