<svg width="59" height="59" viewBox="0 0 59 59" fill="none" xmlns="http://www.w3.org/2000/svg">
<g clip-path="url(#clip0_109_462)">
<path d="M43.328 20.858C34.7497 20.858 27.7715 27.8361 27.7715 36.4144C27.7715 44.9927 34.7496 51.9708 43.3279 51.9708C51.9062 51.9708 58.9995 44.9927 58.9995 36.4144C58.9995 27.8361 51.9063 20.858 43.328 20.858ZM45.1019 44.7446C45.0869 44.7501 45.0713 44.7476 45.0563 44.7528V46.7854C45.0563 47.7408 44.2832 48.5139 43.3278 48.5139C42.3724 48.5139 41.5993 47.7408 41.5993 46.7854V44.741C40.4609 44.3564 39.3701 43.6265 38.4376 42.5148C37.8231 41.7839 37.9176 40.6934 38.6503 40.0807C39.3812 39.4663 40.475 39.5608 41.0844 40.2934C41.9992 41.3822 43.034 41.8143 43.9186 41.4969C44.5988 41.2488 45.0563 40.5956 45.0563 39.8714C45.0563 38.9178 44.2815 38.1429 43.3278 38.1429C40.4684 38.1429 38.1423 35.8168 38.1423 32.9575C38.1423 30.8694 39.3847 28.994 41.3074 28.1806C41.4026 28.1402 41.5034 28.1425 41.5994 28.1082V26.0435C41.5994 25.0881 42.3725 24.315 43.3279 24.315C44.2833 24.315 45.0564 25.0881 45.0564 26.0435V28.1113C45.9514 28.4137 46.8242 28.8943 47.6035 29.6491C48.2888 30.3125 48.3058 31.4063 47.6407 32.0934C46.9773 32.7787 45.8817 32.7939 45.1964 32.1305C44.3558 31.3152 43.4257 31.0349 42.656 31.3642C42.0146 31.6359 41.5993 32.2604 41.5993 32.9576C41.5993 33.9113 42.3741 34.6861 43.3278 34.6861C46.1872 34.6861 48.5132 37.0122 48.5132 39.8716C48.5134 42.0438 47.1427 44.0019 45.1019 44.7446Z" fill="#F9C729"/>
<path d="M1.729 38.1429C0.773596 38.1429 0.000488281 38.916 0.000488281 39.8714V57.2716C0.000488281 58.227 0.773596 59.0001 1.729 59.0001H6.91443V38.1429H1.729Z" fill="#1896CF"/>
<path d="M40.9952 10.7887L28.8957 0.417721C28.2509 -0.139322 27.2921 -0.139322 26.6473 0.417721L14.5479 10.7887C13.9976 11.2579 13.8001 12.0209 14.0516 12.6995C14.3014 13.3781 14.9478 13.8288 15.6721 13.8288H20.8575C20.8575 28.7723 20.8575 44.0557 20.8575 59.0001C25.3104 59.0001 28.3889 59.0001 32.957 59.0001C33.9124 59.0001 34.6855 58.227 34.6855 57.2716V53.329C28.5387 50.1751 24.3146 43.7854 24.3146 36.4145C24.3146 29.0438 28.5388 22.6539 34.6855 19.5001V13.8289H39.871C40.5951 13.8289 41.2417 13.3782 41.4915 12.6996C41.7431 12.0209 41.5456 11.2579 40.9952 10.7887Z" fill="#1896CF"/>
<path d="M12.2151 24.315C11.2597 24.315 10.4866 25.0881 10.4866 26.0435V38.143V59C13.0114 59 14.9491 59 17.4005 59V24.315H12.2151Z" fill="#1896CF"/>
</g>
<defs>
<clipPath id="clip0_109_462">
<rect width="59" height="59" fill="white"/>
</clipPath>
</defs>
</svg>
