<svg width="64" height="64" viewBox="0 0 64 64" fill="none" xmlns="http://www.w3.org/2000/svg">
<path d="M10.4371 19.1264C9.5401 18.6084 8.39361 18.916 7.87604 19.8125C7.35797 20.7094 7.66559 21.8559 8.56207 22.3735C9.45855 22.8916 10.6055 22.5839 11.1231 21.6875C11.6412 20.7905 11.3336 19.644 10.4371 19.1264Z" fill="#F9C729"/>
<path d="M58.2495 15.1255H56.3745V13.2505C56.3745 12.2144 55.5361 11.3755 54.4995 11.3755C53.4634 11.3755 52.6245 12.2144 52.6245 13.2505V15.1255H50.7495C49.7134 15.1255 48.8745 15.9644 48.8745 17.0005C48.8745 18.0371 49.7134 18.8755 50.7495 18.8755H52.6245V20.7505C52.6245 21.7866 53.4634 22.6255 54.4995 22.6255C55.5361 22.6255 56.3745 21.7866 56.3745 20.7505V18.8755H58.2495C59.2856 18.8755 60.1245 18.0371 60.1245 17.0005C60.1245 15.9644 59.2856 15.1255 58.2495 15.1255Z" fill="#F9C729"/>
<path d="M7.625 9.37548C7.625 10.4121 8.46337 11.2505 9.49999 11.2505C10.5361 11.2505 11.375 10.4121 11.375 9.37548V7.50048H13.25C14.2861 7.50048 15.125 6.6621 15.125 5.62548C15.125 4.58935 14.2861 3.75048 13.25 3.75048H11.375V1.87549C11.375 0.839355 10.5361 0.000488281 9.49999 0.000488281C8.46337 0.000488281 7.625 0.839355 7.625 1.87549V3.75048H5.75C4.71387 3.75048 3.875 4.58935 3.875 5.62548C3.875 6.6621 4.71387 7.50048 5.75 7.50048H7.625V9.37548Z" fill="#F9C729"/>
<path d="M19.4683 3.50537C21.2529 7.07568 22.2442 11.0171 22.4937 15.0005H41.5063C41.7554 11.0176 42.7466 7.07568 44.5312 3.50537L44.9268 2.71436C45.2876 1.99317 45.1465 1.12159 44.5752 0.550297C44.0059 -0.0209915 43.1343 -0.162105 42.4111 0.198735L36.1196 3.34424L33.3252 0.550297C32.5928 -0.182124 31.4063 -0.182124 30.6738 0.550297L27.8799 3.34424L21.5884 0.198247C20.8633 -0.162105 19.9976 -0.0229447 19.4243 0.550297C18.853 1.1211 18.7119 1.99268 19.0728 2.71436L19.4683 3.50537Z" fill="#1896CF"/>
<path d="M43.4795 18.8755H20.5195L13.1987 27.7358C9.60449 32.0883 7.625 37.7226 7.625 43.3754C7.625 55.9047 17.1924 63.9999 31.9995 63.9999C46.8071 63.9999 56.3745 55.9047 56.3745 43.3754C56.3745 37.7226 54.395 32.2133 50.7988 27.8608L43.4795 18.8755ZM31.9795 38.2998C35.0815 38.2998 37.6045 40.8227 37.6045 43.9247C37.6045 46.3583 36.042 48.4155 33.8745 49.1977V50.8754C33.8745 51.9116 33.0361 52.7504 31.9995 52.7504C30.9634 52.7504 30.125 51.9116 30.125 50.8754V49.2104C27.9365 48.4394 26.3545 46.373 26.3545 43.9247C26.3545 42.8881 27.1933 42.0498 28.2295 42.0498C29.2661 42.0498 30.1045 42.8881 30.1045 43.9247C30.1045 44.9594 30.9453 45.7997 31.9795 45.7997C33.0141 45.7997 33.8545 44.9594 33.8545 43.9247C33.8545 42.8901 33.0141 42.0498 31.9795 42.0498C28.8779 42.0498 26.3545 39.5263 26.3545 36.4248C26.3545 33.976 27.9365 31.9101 30.125 31.1391V28.3754C30.125 27.3393 30.9634 26.5005 31.9995 26.5005C33.0361 26.5005 33.8745 27.3393 33.8745 28.3754V31.1518C36.042 31.934 37.6045 33.9912 37.6045 36.4248C37.6045 37.4614 36.7661 38.2998 35.7295 38.2998C34.6933 38.2998 33.8545 37.4614 33.8545 36.4248C33.8545 35.3906 33.0141 34.5498 31.9795 34.5498C30.9453 34.5498 30.1045 35.3906 30.1045 36.4248C30.1045 37.4594 30.9448 38.2998 31.9795 38.2998Z" fill="#1896CF"/>
</svg>
