<svg width="66" height="66" viewBox="0 0 66 66" fill="none" xmlns="http://www.w3.org/2000/svg">
<path d="M48.8916 42.4772C48.8916 40.987 48.3115 39.5858 47.2583 38.5313L46.6924 37.9654H43.9893C40.4211 37.9654 37.0257 37.0515 34.0209 35.2984L33.2862 35.8489C28.7322 39.2659 22.2305 38.8827 18.1216 34.7713L16.5245 33.1741C14.0856 30.7299 14.3119 26.7381 16.9538 24.58L25.0027 17.9941C24.5438 17.9026 24.072 17.8562 23.5937 17.8562H13.5313C11.6041 17.8562 9.79172 18.6064 8.42918 19.969C7.79754 20.6019 6.95707 20.95 6.06246 20.95H1.93359C0.86625 20.95 0 21.8162 0 22.8835V46.6023C0 47.6696 0.86625 48.5359 1.93359 48.5359H9.54551L23.943 62.0865C26.152 64.1638 29.5657 64.117 31.7122 61.9679C32.7609 60.9367 33.3134 59.6872 33.4086 58.3521C36.176 58.1501 38.3683 55.9507 38.5649 53.1959C41.3322 52.9939 43.5246 50.7945 43.7211 48.0396C46.6201 47.8279 48.8916 45.4233 48.8916 42.4772Z" fill="#1896CF"/>
<path d="M28.875 12.442C29.9429 12.442 30.8086 11.5763 30.8086 10.5084V4.32092C30.8086 3.25306 29.9429 2.38733 28.875 2.38733C27.8071 2.38733 26.9414 3.25306 26.9414 4.32092V10.5084C26.9414 11.5763 27.8071 12.442 28.875 12.442Z" fill="#F9C729"/>
<path d="M19.2578 12.907C19.6353 13.2845 20.1302 13.4734 20.6249 13.4734C21.1197 13.4734 21.6147 13.2845 21.9921 12.907C22.7473 12.152 22.7473 10.9276 21.9921 10.1725L18.8984 7.07873C18.1434 6.32373 16.919 6.32373 16.1639 7.07873C15.4088 7.83374 15.4088 9.05809 16.1639 9.81322L19.2578 12.907Z" fill="#F9C729"/>
<path d="M37.1251 13.4733C37.6199 13.4733 38.1148 13.2844 38.4922 12.9069L41.586 9.8131C42.3411 9.0581 42.3411 7.83375 41.586 7.07861C40.831 6.32361 39.6066 6.32361 38.8515 7.07861L35.7578 10.1724C35.0026 10.9274 35.0026 12.1517 35.7578 12.9069C36.1353 13.2844 36.6302 13.4733 37.1251 13.4733Z" fill="#F9C729"/>
<path d="M64.0664 20.9498H54.1406C52.8941 20.9498 51.6578 20.5373 50.6601 19.7897C48.9972 18.5431 46.9373 17.8561 44.8593 17.8561H34.7299C32.5557 17.8561 30.3714 18.5984 28.6081 20.041L19.4003 27.5743C18.5178 28.2956 18.4477 29.6265 19.2573 30.4387L20.857 32.0371C23.5601 34.7415 27.9069 35.0496 30.9658 32.7551L33.9203 30.5392C36.7627 32.8454 40.2793 34.0983 43.9892 34.0983H48.2934L49.9924 35.7973C54.7772 40.5892 53.1086 48.6648 46.8986 51.2157C46.5622 52.0381 46.1084 52.8129 45.5477 53.5141C47.8242 53.1364 49.9795 52.1567 51.7687 50.6652C53.4174 49.2924 55.507 48.5356 57.652 48.5356H64.0664C65.1337 48.5356 66 47.6694 66 46.602C66 43.6491 66 25.4432 66 22.8833C66 21.8161 65.1337 20.9498 64.0664 20.9498Z" fill="#1896CF"/>
</svg>
