<svg width="49" height="49" viewBox="0 0 49 49" fill="none" xmlns="http://www.w3.org/2000/svg">
<g clip-path="url(#clip0_11_64)">
<path d="M24.9565 27.5768L28.3358 29.7344L24.9565 35.0407C24.165 35.0407 23.3736 34.7383 22.7697 34.1344L17.0514 28.4152L4.82152 40.6451C4.22147 41.2452 3.24721 41.2452 2.64715 40.6451L0.450762 38.4478C-0.150254 37.8477 -0.150254 36.8734 0.450762 36.2734L14.8646 21.8576C16.0724 20.6508 18.0295 20.6508 19.2373 21.8576L24.9565 27.5768Z" fill="#0FDBAD"/>
<path d="M49 9.44298V25.0522C49 25.901 48.3119 26.5901 47.462 26.5901H44.3555C43.5057 26.5901 42.8176 25.901 42.8176 25.0522V18.4592L27.1423 34.1344C26.5385 34.7383 25.7479 35.0407 24.9565 35.0407V27.5768L38.4468 14.0875H31.8538C31.0049 14.0875 30.3159 13.3984 30.3159 12.5495V9.44298C30.3159 8.59313 31.0049 7.90503 31.8538 7.90503H47.462C48.3119 7.90503 49 8.59313 49 9.44298Z" fill="#0FDBAD"/>
</g>
<defs>
<clipPath id="clip0_11_64">
<rect width="49" height="49" fill="white"/>
</clipPath>
</defs>
</svg>
