<svg width="49" height="49" viewBox="0 0 49 49" fill="none" xmlns="http://www.w3.org/2000/svg">
<g clip-path="url(#clip0_11_59)">
<path d="M24.9565 27.5767L28.3358 29.7343L24.9565 35.0406C24.165 35.0406 23.3736 34.7382 22.7697 34.1343L17.0514 28.4151L4.82152 40.645C4.22147 41.245 3.24721 41.245 2.64715 40.645L0.450762 38.4476C-0.150254 37.8476 -0.150254 36.8733 0.450762 36.2733L14.8646 21.8575C16.0724 20.6507 18.0295 20.6507 19.2373 21.8575L24.9565 27.5767Z" fill="#F9C729"/>
<path d="M49 9.44292V25.0521C49 25.901 48.3119 26.59 47.462 26.59H44.3555C43.5057 26.59 42.8176 25.901 42.8176 25.0521V18.4591L27.1423 34.1343C26.5385 34.7382 25.7479 35.0406 24.9565 35.0406V27.5767L38.4468 14.0874H31.8538C31.0049 14.0874 30.3159 13.3983 30.3159 12.5494V9.44292C30.3159 8.59307 31.0049 7.90497 31.8538 7.90497H47.462C48.3119 7.90497 49 8.59307 49 9.44292Z" fill="#F9C729"/>
</g>
<defs>
<clipPath id="clip0_11_59">
<rect width="49" height="49" fill="white"/>
</clipPath>
</defs>
</svg>
