<svg width="14" height="15" viewBox="0 0 14 15" fill="none" xmlns="http://www.w3.org/2000/svg">
<path d="M9.34517 2.47478C7.21066 0.375676 3.73692 0.375676 1.60088 2.47478C-0.533628 4.57464 -0.533628 7.9915 1.60088 10.0906C2.63529 11.1079 4.01042 11.6683 5.47341 11.6683C6.67169 11.6683 7.80756 11.2868 8.74862 10.5918L12.6646 14.4428C12.8174 14.5931 13.0175 14.6682 13.2177 14.6682C13.4179 14.6682 13.618 14.5931 13.7708 14.4428C14.0764 14.1423 14.0764 13.6555 13.7708 13.355L9.85483 9.50394C10.5615 8.57854 10.9495 7.46147 10.9495 6.28307C10.9495 4.84435 10.3796 3.49203 9.34517 2.47478ZM2.7071 9.00274C1.18223 7.50316 1.18223 5.06297 2.7071 3.56265C3.46954 2.81286 4.47186 2.43797 5.47341 2.43797C6.47497 2.43797 7.47652 2.81286 8.23896 3.56265C8.97771 4.28914 9.3849 5.2553 9.3849 6.28307C9.3849 7.31008 8.97771 8.27624 8.23896 9.00274C7.5002 9.72924 6.51775 10.1297 5.47341 10.1297C4.42831 10.1297 3.44585 9.72924 2.7071 9.00274Z" fill="#7E7878"/>
</svg>
