<svg width="41" height="49" viewBox="0 0 41 49" fill="none" xmlns="http://www.w3.org/2000/svg">
<path d="M38.8343 32.6699C37.5402 36.2337 35.5831 39.3324 33.0166 41.879C30.0952 44.7777 26.2699 47.081 21.6468 48.724C21.4951 48.7777 21.3368 48.8218 21.1777 48.8543C20.9676 48.8964 20.7538 48.9192 20.5419 48.9222H20.5004C20.2745 48.9222 20.0475 48.8991 19.8223 48.8543C19.6632 48.8218 19.5071 48.7777 19.3561 48.7251C14.7275 47.0847 10.8974 44.7825 7.97313 41.8839C5.40553 39.3372 3.4488 36.2404 2.15655 32.6766C-0.193226 26.1971 -0.0595199 19.0591 0.0481062 13.323L0.0499428 13.2349C0.071615 12.7613 0.0855732 12.2637 0.0932871 11.7143C0.132591 9.01687 2.24324 6.78523 4.89826 6.63481C10.4338 6.32091 14.7161 4.4864 18.375 0.862547L18.407 0.832688C19.0145 0.266472 19.78 -0.0112236 20.5419 0.000347128C21.2765 0.0100516 22.0082 0.287374 22.5941 0.832688L22.6253 0.862547C26.285 4.4864 30.5673 6.32091 36.1028 6.63481C38.7579 6.78523 40.8685 9.01687 40.9078 11.7143C40.9155 12.2675 40.9295 12.7643 40.9512 13.2349L40.9523 13.2723C41.0595 19.0191 41.1925 26.1713 38.8343 32.6699Z" fill="#1896CF"/>
<path d="M38.8343 32.6698C37.5402 36.2336 35.5831 39.3323 33.0166 41.8789C30.0952 44.7776 26.2699 47.0809 21.6468 48.7239C21.4951 48.7776 21.3368 48.8217 21.1777 48.8542C20.9676 48.8963 20.7538 48.9191 20.5419 48.9221V0.000244141C21.2765 0.00994858 22.0082 0.287271 22.5941 0.832585L22.6253 0.862445C26.285 4.4863 30.5673 6.32081 36.1028 6.63471C38.7579 6.78513 40.8685 9.01677 40.9078 11.7142C40.9155 12.2674 40.9295 12.7642 40.9512 13.2348L40.9523 13.2722C41.0595 19.019 41.1925 26.1712 38.8343 32.6698Z" fill="#0FDBAD"/>
<path d="M32.4987 24.4608C32.4987 31.1692 27.1383 36.6298 20.5419 36.6537H20.4996C13.8838 36.6537 8.50024 31.1837 8.50024 24.4608C8.50024 17.7382 13.8838 12.2683 20.4996 12.2683H20.5419C27.1383 12.2922 32.4987 17.7528 32.4987 24.4608Z" fill="#FDFDFF"/>
<path d="M25.946 22.7051L20.542 28.1971L19.3742 29.3836C19.0984 29.6639 18.7366 29.8039 18.3751 29.8039C18.0133 29.8039 17.6519 29.6639 17.3756 29.3836L14.865 26.8313C14.3132 26.2707 14.3132 25.3626 14.865 24.8016C15.4159 24.241 16.3108 24.241 16.8625 24.8016L18.3751 26.3387L23.9485 20.6754C24.5003 20.1144 25.3951 20.1144 25.946 20.6754C26.4978 21.236 26.4978 22.1452 25.946 22.7051Z" fill="#F9C729"/>
</svg>
