<svg width="52" height="52" viewBox="0 0 52 52" fill="none" xmlns="http://www.w3.org/2000/svg">
<g clip-path="url(#clip0_109_503)">
<path d="M27.0969 24.9525C27.0883 24.9435 27.0859 24.9317 27.0772 24.9229L18.383 16.2287V10.7657C18.383 10.361 18.2223 9.97425 17.9367 9.68855L8.79611 0.446466C8.36172 0.0121844 7.70563 -0.120253 7.13576 0.116286C6.566 0.351302 6.1955 0.907763 6.1955 1.52364V6.09395H1.52362C0.907849 6.09385 0.351388 6.46425 0.116373 7.03411C-0.120166 7.60388 0.0107478 8.25855 0.446654 8.69446L9.68884 17.9365C9.97454 18.2222 10.3613 18.3829 10.7659 18.3829H16.2289L24.923 27.0771C24.9317 27.0858 24.9436 27.0882 24.9526 27.0968C25.5457 27.6629 26.4467 27.6704 27.0477 27.0968C27.6806 26.4927 27.6664 25.5492 27.0969 24.9525Z" fill="#F9C729"/>
<path d="M26.0003 0.000366211C22.1022 0.000366211 18.4166 0.992124 15.0978 2.54126L19.7711 7.21455C21.7324 6.56232 23.8229 6.19568 26.0004 6.19568C36.9203 6.19558 45.8049 15.0803 45.8049 26.0002C45.8049 36.9201 36.9203 45.8047 26.0003 45.8047C15.0803 45.8047 6.1957 36.9202 6.1957 26.0002C6.1957 23.8227 6.56244 21.7322 7.21457 19.7708L2.54128 15.0975C0.992348 18.4165 0.000488281 22.1021 0.000488281 26.0002C0.000488281 40.2808 11.7197 52.0001 26.0003 52.0001C40.2809 52.0001 52.0002 40.2808 52.0002 26.0002C52.0002 11.7196 40.2811 0.000366211 26.0003 0.000366211Z" fill="#1896CF"/>
<path d="M26.0001 12.2892C24.3899 12.2892 22.8664 12.6193 21.4298 13.1314V14.9671L24.9517 18.489C25.2976 18.4406 25.6411 18.3829 26.0001 18.3829C30.2001 18.3829 33.6173 21.8002 33.6173 26.0001C33.6173 30.2 30.2001 33.6173 26.0001 33.6173C21.8002 33.6173 18.383 30.2 18.383 26.0001C18.383 25.641 18.4406 25.2975 18.489 24.9517L14.9672 21.4297H13.1316C12.6194 22.8663 12.2893 24.3897 12.2893 26C12.2893 33.5606 18.4396 39.7109 26.0001 39.7109C33.5607 39.7109 39.7111 33.5606 39.7111 26C39.7111 18.4394 33.5608 12.2892 26.0001 12.2892Z" fill="#0FDBAD"/>
</g>
<defs>
<clipPath id="clip0_109_503">
<rect width="52" height="52" fill="white"/>
</clipPath>
</defs>
</svg>
