<svg width="63" height="71" viewBox="0 0 63 71" fill="none" xmlns="http://www.w3.org/2000/svg">
<path d="M40.2504 48.2599C52.8146 48.2599 62.9998 37.4784 62.9998 24.1788C62.9998 10.8791 52.8146 0.0976562 40.2504 0.0976562C27.6862 0.0976562 17.5009 10.8791 17.5009 24.1788C17.5009 37.4784 27.6862 48.2599 40.2504 48.2599Z" fill="#0FDBAD"/>
<path d="M40.2504 0.0976562C39.3391 0.0976562 38.4407 0.156033 37.5573 0.266437C48.8519 1.67671 57.6138 11.8439 57.6138 24.1788C57.6138 36.5137 48.8519 46.6808 37.5573 48.0911C38.4406 48.2014 39.3389 48.2599 40.2504 48.2599C52.8146 48.2599 63 37.4784 63 24.1788C63 10.8792 52.8146 0.0976562 40.2504 0.0976562Z" fill="#1896CF"/>
<path d="M46.9616 13.859C46.5003 13.5285 45.8721 13.655 45.559 14.1425L33.4246 33.0173C33.1113 33.5045 33.2314 34.1678 33.6929 34.4984C33.8667 34.6229 34.0639 34.6827 34.2592 34.6827C34.5825 34.6827 34.9003 34.5188 35.0956 34.2151L47.2299 15.3402C47.5434 14.8529 47.4233 14.1897 46.9616 13.859Z" fill="white"/>
<path d="M46.8995 24.7896C44.7978 24.7896 43.0879 27.0085 43.0879 29.736C43.0879 32.4635 44.7978 34.6824 46.8995 34.6824C49.001 34.6824 50.711 32.4635 50.711 29.736C50.711 27.0085 49.0012 24.7896 46.8995 24.7896ZM46.8995 32.5498C45.9282 32.5498 45.1077 31.2612 45.1077 29.736C45.1077 28.2108 45.9283 26.9222 46.8995 26.9222C47.8707 26.9222 48.6911 28.2108 48.6911 29.736C48.6913 31.2612 47.8708 32.5498 46.8995 32.5498Z" fill="white"/>
<path d="M37.413 18.6213C37.413 15.8938 35.7031 13.6749 33.6015 13.6749C31.4999 13.6749 29.7899 15.8938 29.7899 18.6213C29.7899 21.3489 31.4997 23.5677 33.6015 23.5677C35.7031 23.5677 37.413 21.3489 37.413 18.6213ZM31.8098 18.6213C31.8098 17.0961 32.6304 15.8075 33.6015 15.8075C34.5727 15.8075 35.3931 17.0961 35.3931 18.6213C35.3931 20.1466 34.5727 21.4351 33.6015 21.4351C32.6304 21.4351 31.8098 20.1467 31.8098 18.6213Z" fill="white"/>
<path d="M16.0348 67.7344C16.0348 69.4033 12.4453 70.7563 8.01742 70.7563C3.58953 70.7563 0 69.4033 0 67.7344C0 66.8328 0 62.9153 0 62.9153H16.035C16.0348 62.9153 16.0348 66.0655 16.0348 67.7344Z" fill="#FFE563"/>
<path d="M10.6488 62.9153V67.7344C10.6488 69.0471 8.42724 70.164 5.32434 70.5811C6.16624 70.6942 7.07244 70.7563 8.01747 70.7563C12.4454 70.7563 16.0349 69.4033 16.0349 67.7344C16.0349 66.0655 16.0349 62.9153 16.0349 62.9153H10.6488Z" fill="#FFDC2E"/>
<path d="M16.0348 62.9153C16.0348 64.5842 12.4453 65.9372 8.01742 65.9372C3.58953 65.9372 0 64.5842 0 62.9153C0 62.0137 0 58.0961 0 58.0961H16.035C16.0348 58.096 16.0348 61.2462 16.0348 62.9153Z" fill="#FFB700"/>
<path d="M10.6488 58.0959V62.9151C10.6488 64.2278 8.42724 65.3447 5.32434 65.7617C6.16624 65.8749 7.07244 65.937 8.01747 65.937C12.4454 65.937 16.0349 64.584 16.0349 62.9151C16.0349 61.2462 16.0349 58.0959 16.0349 58.0959H10.6488Z" fill="#F5B000"/>
<path d="M16.0348 58.096C16.0348 59.7649 12.4453 61.1179 8.01742 61.1179C3.58953 61.1179 0 59.7649 0 58.096C0 57.1944 0 53.2769 0 53.2769H16.035C16.0348 53.2769 16.0348 56.4271 16.0348 58.096Z" fill="#FFE563"/>
<path d="M10.6488 53.2769V58.096C10.6488 59.4087 8.42724 60.5256 5.32434 60.9426C6.16624 61.0558 7.07244 61.1179 8.01747 61.1179C12.4454 61.1179 16.0349 59.7649 16.0349 58.096C16.0349 56.4271 16.0349 53.2769 16.0349 53.2769H10.6488Z" fill="#FFDC2E"/>
<path d="M16.0348 53.2768C16.0348 54.9457 12.4453 56.2987 8.01742 56.2987C3.58953 56.2987 0 54.9457 0 53.2768C0 52.3752 0 48.4576 0 48.4576H16.035C16.0348 48.4575 16.0348 51.6078 16.0348 53.2768Z" fill="#FFB700"/>
<path d="M10.6488 48.4575V53.2766C10.6488 54.5895 8.42724 55.7062 5.32434 56.1232C6.16624 56.2364 7.07244 56.2985 8.01747 56.2985C12.4454 56.2985 16.0349 54.9455 16.0349 53.2766C16.0349 51.6077 16.0349 48.4575 16.0349 48.4575H10.6488Z" fill="#F5B000"/>
<path d="M8.01742 51.4794C12.4453 51.4794 16.0348 50.1265 16.0348 48.4575C16.0348 46.7886 12.4453 45.4356 8.01742 45.4356C3.58952 45.4356 0 46.7886 0 48.4575C0 50.1265 3.58952 51.4794 8.01742 51.4794Z" fill="#FFE563"/>
<path d="M32.0699 67.7344C32.0699 69.4033 28.4804 70.7563 24.0525 70.7563C19.6246 70.7563 16.035 69.4033 16.035 67.7344C16.035 66.8328 16.035 62.9153 16.035 62.9153H32.0699V67.7344Z" fill="#FFB700"/>
<path d="M26.6836 62.9153V67.7344C26.6836 69.0471 24.462 70.164 21.3591 70.5811C22.201 70.6942 23.1072 70.7563 24.0523 70.7563C28.4802 70.7563 32.0697 69.4033 32.0697 67.7344C32.0697 66.0655 32.0697 62.9153 32.0697 62.9153H26.6836Z" fill="#F5B000"/>
<path d="M32.0699 62.9153C32.0699 64.5842 28.4804 65.9372 24.0525 65.9372C19.6246 65.9372 16.035 64.5842 16.035 62.9153C16.035 62.0137 16.035 58.0961 16.035 58.0961H32.0699C32.0699 58.096 32.0699 61.2462 32.0699 62.9153Z" fill="#FFE563"/>
<path d="M26.6836 58.0959V62.9151C26.6836 64.2278 24.462 65.3447 21.3591 65.7617C22.201 65.8749 23.1072 65.937 24.0523 65.937C28.4802 65.937 32.0697 64.584 32.0697 62.9151C32.0697 61.2462 32.0697 58.0959 32.0697 58.0959H26.6836Z" fill="#FFDC2E"/>
<path d="M32.0699 58.096C32.0699 59.7649 28.4804 61.1179 24.0525 61.1179C19.6246 61.1179 16.035 59.7649 16.035 58.096C16.035 57.1944 16.035 53.2769 16.035 53.2769H32.0699V58.096Z" fill="#FFB700"/>
<path d="M26.6836 53.2769V58.096C26.6836 59.4087 24.462 60.5256 21.3591 60.9426C22.201 61.0558 23.1072 61.1179 24.0523 61.1179C28.4802 61.1179 32.0697 59.7649 32.0697 58.096C32.0697 56.4271 32.0697 53.2769 32.0697 53.2769H26.6836Z" fill="#F5B000"/>
<path d="M32.0699 53.2769C32.0699 54.9458 28.4804 56.2988 24.0525 56.2988C19.6246 56.2988 16.035 54.9458 16.035 53.2769C16.035 52.3753 16.035 48.4577 16.035 48.4577H32.0699C32.0699 48.4576 32.0699 51.6078 32.0699 53.2769Z" fill="#FFE563"/>
<path d="M26.6836 48.4575V53.2767C26.6836 54.5895 24.462 55.7063 21.3591 56.1233C22.201 56.2365 23.1072 56.2986 24.0523 56.2986C28.4802 56.2986 32.0697 54.9456 32.0697 53.2767C32.0697 51.6078 32.0697 48.4575 32.0697 48.4575H26.6836Z" fill="#FFDC2E"/>
<path d="M32.0699 48.3811C32.0699 50.05 28.4804 51.403 24.0525 51.403C19.6246 51.403 16.035 50.05 16.035 48.3811C16.035 47.4795 16.035 43.562 16.035 43.562H32.0699C32.0699 43.5618 32.0699 46.7121 32.0699 48.3811Z" fill="#FFB700"/>
<path d="M26.6836 43.5618V48.381C26.6836 49.6937 24.462 50.8106 21.3591 51.2276C22.201 51.3408 23.1072 51.4029 24.0523 51.4029C28.4802 51.4029 32.0697 50.0499 32.0697 48.381C32.0697 46.7121 32.0697 43.5618 32.0697 43.5618H26.6836Z" fill="#F5B000"/>
<path d="M32.0699 43.4854C32.0699 45.1543 28.4804 46.5073 24.0525 46.5073C19.6246 46.5073 16.035 45.1543 16.035 43.4854C16.035 42.5838 16.035 38.6662 16.035 38.6662H32.0699C32.0699 38.6661 32.0699 41.8163 32.0699 43.4854Z" fill="#FFE563"/>
<path d="M26.6836 38.6661V43.4852C26.6836 44.7979 24.462 45.9148 21.3591 46.3319C22.201 46.445 23.1072 46.5071 24.0523 46.5071C28.4802 46.5071 32.0697 45.1541 32.0697 43.4852C32.0697 41.8163 32.0697 38.6661 32.0697 38.6661H26.6836Z" fill="#FFDC2E"/>
<path d="M24.0523 41.688C28.4802 41.688 32.0698 40.335 32.0698 38.6661C32.0698 36.9971 28.4802 35.6442 24.0523 35.6442C19.6244 35.6442 16.0349 36.9971 16.0349 38.6661C16.0349 40.335 19.6244 41.688 24.0523 41.688Z" fill="#F9C729"/>
<path d="M48.1047 62.9153V67.7344C48.1047 67.7344 44.5151 70.7563 40.0872 70.7563C35.6594 70.7563 32.0698 69.4033 32.0698 67.7344C32.0698 66.8328 32.0698 62.9153 32.0698 62.9153H48.1047Z" fill="#FFE563"/>
<path d="M42.7186 62.9153V67.7344C42.7186 69.0471 40.4971 70.164 37.3942 70.5811C38.2361 70.6942 39.1423 70.7563 40.0873 70.7563C44.5152 70.7563 48.1047 69.4033 48.1047 67.7344C48.1047 66.0655 48.1047 62.9153 48.1047 62.9153H42.7186Z" fill="#FFDC2E"/>
<path d="M48.1047 62.9153C48.1047 64.5842 44.5151 65.9372 40.0872 65.9372C35.6594 65.9372 32.0698 64.5842 32.0698 62.9153C32.0698 62.0137 32.0698 58.0961 32.0698 58.0961H48.1048C48.1047 58.096 48.1047 61.2462 48.1047 62.9153Z" fill="#FFB700"/>
<path d="M42.7186 58.0959V62.9151C42.7186 64.2278 40.4971 65.3447 37.3942 65.7617C38.2361 65.8749 39.1423 65.937 40.0873 65.937C44.5152 65.937 48.1047 64.584 48.1047 62.9151C48.1047 61.2462 48.1047 58.0959 48.1047 58.0959H42.7186Z" fill="#F5B000"/>
<path d="M40.0872 61.1179C44.5152 61.1179 48.1047 59.765 48.1047 58.096C48.1047 56.4271 44.5152 55.0741 40.0872 55.0741C35.6593 55.0741 32.0698 56.4271 32.0698 58.096C32.0698 59.765 35.6593 61.1179 40.0872 61.1179Z" fill="#FFE563"/>
</svg>
