<svg width="60" height="66" viewBox="0 0 60 66" fill="none" xmlns="http://www.w3.org/2000/svg">
<path d="M28.3269 54.4902V58.5877C28.3269 60.281 27.0283 61.6521 25.4259 61.6521H25.4246C23.8222 61.6521 22.5236 60.281 22.5236 58.5877V57.717C22.5236 56.7803 21.8512 55.9707 20.9659 55.9077C20.4583 55.8716 19.9958 56.075 19.6668 56.4209C19.3642 56.7404 19.1769 57.1827 19.1769 57.6704V58.7765C19.1769 62.42 21.9744 65.3736 25.4252 65.3736C28.8761 65.3736 31.6735 62.4199 31.6735 58.7765V54.4903L30.0003 53.6115L28.3269 54.4902Z" fill="#1896CF"/>
<path d="M28.327 19.0244H31.6738V54.49H28.327V19.0244Z" fill="#F9C729"/>
<path d="M19.1764 44.7309C19.1764 49.8182 15.2705 53.9421 10.4522 53.9421C9.78958 53.9421 9.1444 53.8647 8.52532 53.7164C4.63311 52.791 1.72668 49.1186 1.72668 44.7309C1.72668 40.3431 4.63311 36.6707 8.52532 35.7441C9.1444 35.5957 9.78958 35.5183 10.4522 35.5183C15.2705 35.5183 19.1764 39.6436 19.1764 44.7309Z" fill="#F9C729"/>
<path d="M54.4885 39.6974V49.7644C54.4885 51.388 53.2416 52.7045 51.7039 52.7045H44.05C42.5122 52.7045 41.2666 51.388 41.2666 49.7644V39.6974C41.2666 38.0738 42.5122 36.7574 44.05 36.7574H51.7039C53.2416 36.7574 54.4885 38.0738 54.4885 39.6974Z" fill="#0FDBAD"/>
<path d="M59.7046 29.2314C59.5902 29.2314 59.4883 29.1619 59.4385 29.0529C58.2153 26.3938 55.6333 24.5615 52.6461 24.5615C49.818 24.5615 47.3529 26.2021 46.06 28.6316C45.8636 29.0004 45.4969 29.2314 45.0966 29.2314H45.0494C45.0382 29.2314 45.0258 29.2314 45.0146 29.2301C45.0146 29.2301 40.2994 22.8329 37.5074 22.8329C34.6793 22.8329 30.0001 29.2314 30.0001 29.2314C29.8 29.2314 29.6086 29.1737 29.442 29.07C29.2754 28.9663 29.1349 28.8154 29.0367 28.6316C27.7439 26.2021 25.28 24.5615 22.4531 24.5615C19.671 24.5615 17.196 26.2205 15.887 28.6395C15.7005 28.9873 15.3611 29.2091 14.9857 29.2288C14.9671 29.2314 10.1835 22.4063 7.35665 22.4063C3.14868 22.4063 14.4922 0.651367 30.0001 0.651367C45.5081 0.651367 58.2849 12.9956 59.9979 28.8849C60.0178 29.07 59.8798 29.2314 59.7046 29.2314Z" fill="#0FDBAD"/>
<path d="M30.0003 0.651367C30.0003 0.651367 16.1768 5.79906 14.9858 29.2288C14.9672 29.2314 14.9473 29.2314 14.9287 29.2314H14.9038C14.5035 29.2314 14.1368 29.0004 13.9404 28.6316C12.6475 26.2021 10.1837 24.5615 7.3568 24.5615C4.36709 24.5615 1.78512 26.3938 0.561892 29.0529C0.512167 29.1619 0.410231 29.2314 0.295863 29.2314C0.131771 29.2314 0 29.0897 0 28.9204C0 28.9086 0.00124312 28.8967 0.00248624 28.8849C1.71551 12.9956 14.4923 0.651367 30.0003 0.651367Z" fill="#1896CF"/>
<path d="M45.0147 29.2301C44.6306 29.2183 44.2812 28.9939 44.0898 28.6395C42.7845 26.2245 40.3418 24.5615 37.5497 24.5615C34.7216 24.5615 32.2565 26.2021 30.9637 28.6316C30.7673 29.0004 30.4005 29.2314 30.0002 29.2314V0.651367C30.0002 0.651367 43.8238 5.79906 45.0147 29.2301Z" fill="#1896CF"/>
<path d="M59.7047 29.2314C59.5903 29.2314 59.4884 29.1619 59.4386 29.0529C58.2154 26.3938 55.6334 24.5615 52.6462 24.5615C50.6348 3.56082 30.0002 0.651367 30.0002 0.651367C45.5082 0.651367 58.285 12.9956 59.998 28.8849C60.0179 29.07 59.88 29.2314 59.7047 29.2314Z" fill="#1896CF"/>
<path d="M48.8015 42.7702H45.1998C44.6849 42.7702 44.2675 42.3295 44.2675 41.7858C44.2675 41.2422 44.6849 40.8015 45.1998 40.8015H48.8015C49.3164 40.8015 49.7338 41.2422 49.7338 41.7858C49.7338 42.3295 49.3164 42.7702 48.8015 42.7702Z" fill="#FDFDFF"/>
<path d="M50.4798 46.7732H45.1998C44.6849 46.7732 44.2675 46.3324 44.2675 45.7888C44.2675 45.2451 44.6849 44.8044 45.1998 44.8044H50.4798C50.9947 44.8044 51.4122 45.2451 51.4122 45.7888C51.4122 46.3324 50.9947 46.7732 50.4798 46.7732Z" fill="#FDFDFF"/>
<path d="M11.787 43.7352C11.6329 43.6851 11.476 43.633 11.3188 43.5794V41.0435C11.6871 41.1627 11.9005 41.3288 11.9177 41.3426L12.0036 41.4099C12.4032 41.7235 12.9661 41.6475 13.2783 41.2379C13.6171 40.7929 13.5259 40.135 13.0776 39.8155C12.5538 39.4422 12.0282 39.1586 11.3188 39.0264V38.7033C11.3188 38.1642 10.9255 37.6942 10.4152 37.6781C9.88726 37.6613 9.45416 38.1083 9.45416 38.6621V39.0869C9.40431 39.099 9.35458 39.1111 9.30399 39.1251C8.13384 39.4497 7.28391 40.4014 7.08576 41.6091C6.91433 42.6541 7.29523 43.6551 8.07989 44.2218C8.43865 44.4808 8.87511 44.7189 9.45416 44.9656V48.4009C9.01235 48.347 8.67895 48.2155 8.17039 47.9119C7.72858 47.6482 7.15053 47.7736 6.88375 48.2294C6.6048 48.7058 6.75745 49.3276 7.21442 49.6027C8.0917 50.1311 8.7104 50.3179 9.45416 50.378V50.757C9.45416 51.2961 9.84748 51.7661 10.3578 51.7822C10.8857 51.799 11.3188 51.352 11.3188 50.7983V50.295C12.9414 49.9138 13.9431 48.5831 14.1266 47.2707C14.3521 45.6588 13.4336 44.271 11.787 43.7352ZM9.13244 42.5966C8.87722 42.4123 8.90097 42.0795 8.9231 41.9449C8.96673 41.6789 9.13082 41.368 9.45416 41.1704V42.8002C9.3373 42.7338 9.22853 42.666 9.13244 42.5966ZM12.2819 46.9833C12.214 47.4688 11.8765 47.9594 11.3188 48.2276V45.6454C12.0252 45.901 12.3673 46.3731 12.2819 46.9833Z" fill="#FFF3C4"/>
</svg>
